<svg xmlns="http://www.w3.org/2000/svg" width="244" height="80" viewBox="0 0 244 80">
  <g id="Group_158" data-name="Group 158" transform="translate(-408.618 -305.914)">
    <g id="Group_157" data-name="Group 157" transform="translate(408.618 321.155)">
      <g id="Group_154" data-name="Group 154" transform="translate(0 18.208)">
        <path id="Path_27" data-name="Path 27" d="M583.221,538.187v4.442a24.3,24.3,0,0,0-3.756-1.14q-.2-.044-.409-.085a21.962,21.962,0,0,0-3.136-.4,17.649,17.649,0,0,0-6.894.94,16.413,16.413,0,0,0-4.286,2.294,19.462,19.462,0,0,0-3.022,2.8l-.026.03q-.591.672-1.15,1.418-.752,1.006-1.544,1.872l0,0a21.268,21.268,0,0,1-6.181,4.737,20.706,20.706,0,0,1-4.286,1.586,23.161,23.161,0,0,1-5.61.672c-.412,0-.812-.009-1.2-.028a27.586,27.586,0,0,1-2.881-.291q-.382-.058-.75-.124a30.434,30.434,0,0,1-3.416-.821v-4.4a25.9,25.9,0,0,0,3.416.974q.364.078.75.148a23.506,23.506,0,0,0,3.228.363,18.493,18.493,0,0,0,6.463-.819,16,16,0,0,0,4.286-2.128,18.174,18.174,0,0,0,3.463-3.187l.022-.026q.4-.47.775-.977a27,27,0,0,1,1.92-2.295h0a22.2,22.2,0,0,1,5.741-4.453,20.555,20.555,0,0,1,4.286-1.706,22.629,22.629,0,0,1,7.3-.724,26.137,26.137,0,0,1,2.727.309c.138.023.274.046.409.071A28.677,28.677,0,0,1,583.221,538.187Z" transform="translate(-534.674 -536.814)" fill="#0d598b"/>
      </g>
      <g id="Group_155" data-name="Group 155" transform="translate(12.978 5.813)">
        <path id="Path_28" data-name="Path 28" d="M614.906,460.187a5.135,5.135,0,0,1,.518.669Z" transform="translate(-614.906 -460.187)" fill="#0d598b"/>
      </g>
      <path id="Path_29" data-name="Path 29" d="M548.987,635.13v8.722a5.074,5.074,0,1,1-10.148,0V629.887q-.385-.07-.75-.148a25.914,25.914,0,0,1-3.416-.974v15.086a9.239,9.239,0,1,0,18.479,0V633.543A19.758,19.758,0,0,1,548.987,635.13Z" transform="translate(-534.674 -595.684)" fill="#0d598b"/>
      <path id="Path_30" data-name="Path 30" d="M734.868,629v14.023a5.074,5.074,0,1,1-10.148,0V634.3a19.754,19.754,0,0,1-4.165-1.586v10.308a9.239,9.239,0,1,0,18.478,0V627.773A24.377,24.377,0,0,1,734.868,629Z" transform="translate(-690.487 -594.852)" fill="#0d598b"/>
      <rect id="Rectangle_82" data-name="Rectangle 82" width="2.697" height="16.061" rx="1.349" transform="translate(38.819 19.869)" fill="#0d598b"/>
      <rect id="Rectangle_83" data-name="Rectangle 83" width="2.697" height="14.041" rx="1.349" transform="translate(43.233 21.888)" fill="#0d598b"/>
      <rect id="Rectangle_84" data-name="Rectangle 84" width="2.697" height="14.484" rx="1.349" transform="translate(34.633 21.888)" fill="#0d598b"/>
      <rect id="Rectangle_85" data-name="Rectangle 85" width="2.697" height="16.63" rx="1.349" transform="translate(9.818 19.283)" fill="#0d598b"/>
      <rect id="Rectangle_86" data-name="Rectangle 86" width="2.697" height="14.539" rx="1.349" transform="translate(14.232 21.374)" fill="#0d598b"/>
      <rect id="Rectangle_87" data-name="Rectangle 87" width="2.697" height="14.997" rx="1.349" transform="translate(5.632 21.374)" fill="#0d598b"/>
      <path id="Path_31" data-name="Path 31" d="M583.221,433.725v14.552a24.291,24.291,0,0,0-3.756-1.14q-.2-.044-.409-.085V433.725a5.144,5.144,0,0,0-5.074-5.2,5.021,5.021,0,0,0-3.962,1.957c-.035.044-.068.089-.1.134l0,.006-5.17,6.845-3.3,4.362a3.126,3.126,0,0,1-5.019,0l-3.275-4.335-4.982-6.594a5.26,5.26,0,0,0-.518-.687,5.007,5.007,0,0,0-3.739-1.688,5.144,5.144,0,0,0-5.074,5.2v13.422a23.344,23.344,0,0,0-4.166,1.347V433.725a9.382,9.382,0,0,1,8.5-9.442c.245-.019.491-.03.74-.03a9.116,9.116,0,0,1,6.827,3.089l.914,1.21,6.628,8.774a.817.817,0,0,0,1.31,0l6.789-8.988,0,0,.6-.8a9.126,9.126,0,0,1,7-3.287c.242,0,.482.01.72.028A9.381,9.381,0,0,1,583.221,433.725Z" transform="translate(-534.674 -424.253)" fill="#0d598b"/>
      <g id="Group_156" data-name="Group 156" transform="translate(0 18.208)">
        <path id="Path_32" data-name="Path 32" d="M538.885,541.49a21.46,21.46,0,0,1,3.484-.483,17.059,17.059,0,0,1,6.774.94,16.041,16.041,0,0,1,4.211,2.294,18.42,18.42,0,0,1,1.839,1.591c.2-.247.405-.5.6-.759a28.774,28.774,0,0,1,2.035-2.431l.022-.023h0l.02-.021a21.362,21.362,0,0,0-4.514-3.309,20,20,0,0,0-4.211-1.706,21.862,21.862,0,0,0-7.176-.724,25.5,25.5,0,0,0-3.082.38l-.045.008a27.806,27.806,0,0,0-4.166,1.12v4.481a23.332,23.332,0,0,1,4.166-1.347Z" transform="translate(-534.674 -536.814)" fill="#0d598b"/>
        <path id="Path_33" data-name="Path 33" d="M710.872,612.113a22.834,22.834,0,0,1-3.424.411,17.868,17.868,0,0,1-6.35-.819,15.61,15.61,0,0,1-4.211-2.128,17.2,17.2,0,0,1-2.291-1.958c-.327.379-.647.775-.951,1.181-.52.7-1.073,1.366-1.642,1.991l-.03.033,0,0-.043.046a20.535,20.535,0,0,0,4.958,3.576,20.1,20.1,0,0,0,4.211,1.586,22.373,22.373,0,0,0,5.512.672c.4,0,.8-.009,1.179-.028a26.832,26.832,0,0,0,3.083-.33q.246-.041.484-.084a29.47,29.47,0,0,0,3.681-.924v-4.423a24.968,24.968,0,0,1-3.681,1.1C711.2,612.047,711.036,612.081,710.872,612.113Z" transform="translate(-666.491 -596.166)" fill="#0d598b"/>
      </g>
    </g>
    <text id="MicroBIS" transform="translate(484.618 369.914)" fill="#0d598b" font-size="73" font-family="Blanch-Caps, Blanch"><tspan x="0" y="0" fill="#000">Micro</tspan><tspan y="0" fill="#0d598b">BIS</tspan></text>
  </g>
</svg>
