<svg xmlns="http://www.w3.org/2000/svg" width="41.757" height="49.378" viewBox="0 0 41.757 49.378">
  <g id="Group_157" data-name="Group 157" transform="translate(-16.271 -19.24)">
    <g id="Group_154" data-name="Group 154" transform="translate(16.271 34.902)">
      <path id="Path_27" data-name="Path 27" d="M534.674,537.995v3.821a20.9,20.9,0,0,1,3.231-.98c.116-.025.233-.05.352-.073a18.9,18.9,0,0,1,2.7-.342,15.181,15.181,0,0,1,5.93.809,14.118,14.118,0,0,1,3.686,1.973,16.737,16.737,0,0,1,2.6,2.406l.022.025q.508.578.989,1.22.647.865,1.328,1.61v0a18.292,18.292,0,0,0,5.317,4.075,17.811,17.811,0,0,0,3.686,1.365,19.921,19.921,0,0,0,4.825.578c.354,0,.7-.008,1.032-.024a23.729,23.729,0,0,0,2.478-.25q.329-.05.645-.107a26.172,26.172,0,0,0,2.938-.706v-3.787a22.3,22.3,0,0,1-2.938.837q-.313.067-.645.127a20.213,20.213,0,0,1-2.776.312,15.9,15.9,0,0,1-5.559-.7,13.761,13.761,0,0,1-3.686-1.83,15.634,15.634,0,0,1-2.979-2.741l-.019-.023q-.341-.4-.667-.84a23.24,23.24,0,0,0-1.652-1.974h0a19.094,19.094,0,0,0-4.938-3.83,17.684,17.684,0,0,0-3.686-1.467,19.462,19.462,0,0,0-6.282-.623,22.492,22.492,0,0,0-2.345.266c-.119.02-.236.04-.352.061A24.672,24.672,0,0,0,534.674,537.995Z" transform="translate(-534.674 -536.814)" fill="#fff"/>
    </g>
    <g id="Group_155" data-name="Group 155" transform="translate(46.419 24.24)">
      <path id="Path_28" data-name="Path 28" d="M615.352,460.187a4.429,4.429,0,0,0-.446.576Z" transform="translate(-614.906 -460.187)" fill="#fff"/>
    </g>
    <path id="Path_29" data-name="Path 29" d="M538.257,634.24v7.5a4.364,4.364,0,1,0,8.728,0V629.73q.331-.06.645-.127a22.292,22.292,0,0,0,2.938-.837v12.976a7.947,7.947,0,1,1-15.894,0v-8.867A17,17,0,0,0,538.257,634.24Z" transform="translate(-492.54 -581.07)" fill="#fff"/>
    <path id="Path_30" data-name="Path 30" d="M724.138,628.825v12.062a4.364,4.364,0,1,0,8.728,0v-7.5a16.988,16.988,0,0,0,3.583-1.365v8.867a7.947,7.947,0,1,1-15.894,0V627.773A20.97,20.97,0,0,0,724.138,628.825Z" transform="translate(-704.284 -580.216)" fill="#fff"/>
    <rect id="Rectangle_82" data-name="Rectangle 82" width="2.32" height="13.815" rx="1.16" transform="translate(22.318 36.33)" fill="#fff"/>
    <rect id="Rectangle_83" data-name="Rectangle 83" width="2.32" height="12.078" rx="1.16" transform="translate(18.522 38.067)" fill="#fff"/>
    <rect id="Rectangle_84" data-name="Rectangle 84" width="2.32" height="12.458" rx="1.16" transform="translate(25.919 38.067)" fill="#fff"/>
    <rect id="Rectangle_85" data-name="Rectangle 85" width="2.32" height="14.304" rx="1.16" transform="translate(47.263 35.827)" fill="#fff"/>
    <rect id="Rectangle_86" data-name="Rectangle 86" width="2.32" height="12.506" rx="1.16" transform="translate(43.467 37.625)" fill="#fff"/>
    <rect id="Rectangle_87" data-name="Rectangle 87" width="2.32" height="12.9" rx="1.16" transform="translate(50.864 37.625)" fill="#fff"/>
    <path id="Path_31" data-name="Path 31" d="M534.674,432.4v12.517a20.886,20.886,0,0,1,3.231-.98q.173-.038.352-.073V432.4a4.425,4.425,0,0,1,4.364-4.474,4.319,4.319,0,0,1,3.408,1.683c.03.038.059.077.088.116l0,.006,4.447,5.887,2.835,3.752a2.689,2.689,0,0,0,4.317,0l2.817-3.729,4.285-5.672a4.532,4.532,0,0,1,.446-.591,4.307,4.307,0,0,1,3.216-1.452,4.425,4.425,0,0,1,4.364,4.474v11.545a20.082,20.082,0,0,1,3.583,1.159V432.4a8.07,8.07,0,0,0-7.311-8.121c-.21-.017-.422-.026-.637-.026a7.841,7.841,0,0,0-5.872,2.657l-.786,1.041-5.7,7.547a.7.7,0,0,1-1.127,0l-5.839-7.731,0,0-.516-.684a7.849,7.849,0,0,0-6.019-2.827c-.208,0-.415.008-.619.024A8.069,8.069,0,0,0,534.674,432.4Z" transform="translate(-518.403 -405.013)" fill="#fff"/>
    <g id="Group_156" data-name="Group 156" transform="translate(16.271 34.902)">
      <path id="Path_32" data-name="Path 32" d="M551,540.836a18.461,18.461,0,0,0-3-.416,14.674,14.674,0,0,0-5.827.809,13.8,13.8,0,0,0-3.622,1.973,15.851,15.851,0,0,0-1.582,1.368c-.176-.213-.348-.432-.514-.653a24.764,24.764,0,0,0-1.75-2.091l-.019-.02h0l-.018-.018a18.375,18.375,0,0,1,3.883-2.846,17.208,17.208,0,0,1,3.622-1.467,18.8,18.8,0,0,1,6.173-.623,21.951,21.951,0,0,1,2.651.327l.039.007a23.911,23.911,0,0,1,3.583.963V542a20.067,20.067,0,0,0-3.583-1.159Z" transform="translate(-512.868 -536.814)" fill="#fff"/>
      <path id="Path_33" data-name="Path 33" d="M695.511,611.484a19.62,19.62,0,0,0,2.945.354,15.366,15.366,0,0,0,5.462-.7,13.427,13.427,0,0,0,3.622-1.83,14.807,14.807,0,0,0,1.97-1.684c.281.326.556.666.818,1.016.448.6.923,1.175,1.412,1.712l.026.028,0,0,.037.039a17.661,17.661,0,0,1-4.265,3.076,17.293,17.293,0,0,1-3.622,1.365,19.245,19.245,0,0,1-4.741.578q-.521,0-1.014-.024a23.06,23.06,0,0,1-2.652-.284c-.141-.024-.28-.047-.417-.073a25.347,25.347,0,0,1-3.166-.794v-3.8a21.473,21.473,0,0,0,3.166.943C695.23,611.428,695.37,611.457,695.511,611.484Z" transform="translate(-691.928 -597.767)" fill="#fff"/>
    </g>
  </g>
</svg>
