<svg xmlns="http://www.w3.org/2000/svg" viewBox="0 0 496.11 586.66"><defs><style>.cls-1{fill:#0d598b;}</style></defs><title>Logo 01</title><g id="Layer_2" data-name="Layer 2"><g id="Layer_1-2" data-name="Layer 1"><path class="cls-1" d="M496.11,200.11V245.5a248,248,0,0,0-38.38-11.64c-1.38-.3-2.77-.59-4.19-.87a222.71,222.71,0,0,0-32-4.07q-37.85-2-70.46,9.61A167.5,167.5,0,0,0,307.24,262a198.73,198.73,0,0,0-30.88,28.59l-.26.3q-6,6.87-11.75,14.49c-5.12,6.86-10.4,13.22-15.77,19.13l0,0a217.47,217.47,0,0,1-63.16,48.41,212,212,0,0,1-43.8,16.21A236.79,236.79,0,0,1,84.27,396Q78,396,72,395.7a280.75,280.75,0,0,1-29.44-3c-2.6-.39-5.16-.82-7.66-1.27A310.65,310.65,0,0,1,0,383.07v-45A263.9,263.9,0,0,0,34.91,348c2.48.53,5,1,7.66,1.51a240.48,240.48,0,0,0,33,3.71q35.57,1.45,66.05-8.37a163.52,163.52,0,0,0,43.8-21.74,186,186,0,0,0,35.39-32.57l.22-.27q4.05-4.82,7.93-10a274.66,274.66,0,0,1,19.62-23.45h0a226.93,226.93,0,0,1,58.67-45.51A210.1,210.1,0,0,1,351,193.92a231.24,231.24,0,0,1,74.64-7.41,267,267,0,0,1,27.86,3.17c1.41.23,2.81.47,4.19.72A292.6,292.6,0,0,1,496.11,200.11Z"/><path class="cls-1" d="M132.63,59.4a53.18,53.18,0,0,1,5.3,6.84Z"/><path class="cls-1" d="M146.27,403.11v89.13a51.85,51.85,0,0,1-103.7,0V349.53c-2.62-.47-5.18-1-7.66-1.51A263.9,263.9,0,0,1,0,338.08V492.24a94.42,94.42,0,0,0,188.84,0V386.89A201.83,201.83,0,0,1,146.27,403.11Z"/><path class="cls-1" d="M453.54,348.94v143.3a51.85,51.85,0,0,1-103.7,0V403.11a202,202,0,0,1-42.57-16.22V492.24a94.42,94.42,0,0,0,188.84,0V336.43A248.53,248.53,0,0,1,453.54,348.94Z"/><rect class="cls-1" x="396.7" y="203.04" width="14.22" height="164.13" rx="4.3"/><rect class="cls-1" x="441.81" y="223.68" width="14.22" height="143.49" rx="4.3"/><rect class="cls-1" x="353.92" y="223.68" width="14.22" height="148.01" rx="4.3"/><rect class="cls-1" x="100.34" y="197.06" width="14.22" height="169.95" rx="4.3"/><rect class="cls-1" x="145.44" y="218.43" width="14.22" height="148.58" rx="4.3"/><rect class="cls-1" x="57.55" y="218.43" width="14.22" height="153.26" rx="4.3"/><path class="cls-1" d="M496.11,96.79V245.5a248,248,0,0,0-38.38-11.64c-1.38-.3-2.77-.59-4.19-.87V96.79c0-29.3-23.26-53.15-51.85-53.15a51.31,51.31,0,0,0-40.49,20c-.36.45-.7.91-1,1.37l-.05.07-52.84,70L273.6,179.61a32,32,0,0,1-51.3,0l-33.46-44.3-50.91-67.4a54.16,54.16,0,0,0-5.3-7A51.17,51.17,0,0,0,94.42,43.64c-28.59,0-51.85,23.85-51.85,53.15V234A238.68,238.68,0,0,0,0,247.73V96.79C0,46,38.25,4.26,86.86.3c2.5-.2,5-.3,7.56-.3a93.15,93.15,0,0,1,69.76,31.57l9.34,12.36,67.73,89.66a8.34,8.34,0,0,0,13.39,0L324,41.74l0,0,6.14-8.13A93.25,93.25,0,0,1,401.69,0c2.47,0,4.93.1,7.36.29C457.76,4.14,496.11,45.88,496.11,96.79Z"/><path class="cls-1" d="M43,233.86a218.46,218.46,0,0,1,35.61-4.94q37.17-2,69.22,9.61a163.65,163.65,0,0,1,43,23.44,186.69,186.69,0,0,1,18.79,16.26c2.09-2.53,4.14-5.13,6.1-7.76a291.21,291.21,0,0,1,20.8-24.84l.22-.25h0l.21-.22a218.7,218.7,0,0,0-46.13-33.82,204.27,204.27,0,0,0-43-17.42,223.39,223.39,0,0,0-73.34-7.41A261,261,0,0,0,43,190.4l-.46.09A282.76,282.76,0,0,0,0,201.93v45.8A238.68,238.68,0,0,1,42.57,234Z"/><path class="cls-1" d="M453.54,349a232.55,232.55,0,0,1-35,4.2q-34.93,1.45-64.89-8.37a159.49,159.49,0,0,1-43-21.74,177,177,0,0,1-23.41-20c-3.34,3.87-6.6,7.91-9.71,12.07-5.32,7.11-11,13.95-16.78,20.34l-.31.34,0,0-.44.47a209.9,209.9,0,0,0,50.67,36.55,206.1,206.1,0,0,0,43,16.21A228.82,228.82,0,0,0,410,396q6.19,0,12.05-.29a273.16,273.16,0,0,0,31.5-3.38c1.68-.27,3.32-.56,4.95-.86A299.88,299.88,0,0,0,496.11,382v-45.2A253.52,253.52,0,0,1,458.49,348C456.88,348.37,455.22,348.71,453.54,349Z"/></g></g></svg>