<svg xmlns="http://www.w3.org/2000/svg" viewBox="0 0 997.61 1335.19"><defs><style>.cls-1{fill:#0d598b;}.cls-2{fill:#fff;}</style></defs><title>Logo 04</title><g id="Layer_2" data-name="Layer 2"><g id="Layer_1-2" data-name="Layer 1"><rect class="cls-1" x="4.32" width="993.3" height="993.3" rx="325.44"/><path class="cls-2" d="M749,403.42v45.4a249,249,0,0,0-38.38-11.65c-1.38-.29-2.77-.59-4.19-.87a224.17,224.17,0,0,0-32-4.06q-37.85-2-70.46,9.6a167.83,167.83,0,0,0-43.8,23.45,198.65,198.65,0,0,0-30.88,28.58l-.26.31q-6,6.87-11.75,14.49-7.68,10.27-15.77,19.13h0a217.51,217.51,0,0,1-63.16,48.42,212,212,0,0,1-43.8,16.21,236.75,236.75,0,0,1-57.33,6.86q-6.31,0-12.26-.28a283.46,283.46,0,0,1-29.44-3c-2.6-.4-5.16-.82-7.66-1.27a310.65,310.65,0,0,1-34.91-8.39v-45a265.23,265.23,0,0,0,34.91,10c2.48.53,5,1,7.66,1.51a240.48,240.48,0,0,0,33,3.71Q364,558,394.51,548.19a163.52,163.52,0,0,0,43.8-21.74,185.69,185.69,0,0,0,35.39-32.58l.22-.26q4.05-4.82,7.93-10a274.66,274.66,0,0,1,19.62-23.45h0a226.93,226.93,0,0,1,58.67-45.51A210.16,210.16,0,0,1,604,397.23a231.5,231.5,0,0,1,74.64-7.4A269.78,269.78,0,0,1,706.45,393l4.19.73A294.3,294.3,0,0,1,749,403.42Z"/><path class="cls-2" d="M385.54,262.72a52.5,52.5,0,0,1,5.3,6.84Z"/><path class="cls-2" d="M399.18,606.42v89.14a51.85,51.85,0,0,1-103.7,0V552.85c-2.62-.47-5.18-1-7.66-1.51a265.23,265.23,0,0,1-34.91-10V695.56a94.42,94.42,0,0,0,188.84,0V590.21A201.77,201.77,0,0,1,399.18,606.42Z"/><path class="cls-2" d="M706.45,552.25V695.56a51.85,51.85,0,0,1-103.7,0V606.42a202,202,0,0,1-42.57-16.21V695.56a94.42,94.42,0,0,0,188.84,0V539.75A248.7,248.7,0,0,1,706.45,552.25Z"/><rect class="cls-2" x="649.62" y="406.36" width="14.22" height="164.13" rx="4.3"/><rect class="cls-2" x="694.72" y="427" width="14.22" height="143.49" rx="4.3"/><rect class="cls-2" x="606.83" y="427" width="14.22" height="148.01" rx="4.3"/><rect class="cls-2" x="353.25" y="400.38" width="14.22" height="169.95" rx="4.3"/><rect class="cls-2" x="398.35" y="421.75" width="14.22" height="148.58" rx="4.3"/><rect class="cls-2" x="310.46" y="421.75" width="14.22" height="153.26" rx="4.3"/><path class="cls-2" d="M749,300.11V448.82a249,249,0,0,0-38.38-11.65c-1.38-.29-2.77-.59-4.19-.87V300.11c0-29.3-23.26-53.15-51.85-53.15a51.31,51.31,0,0,0-40.49,20c-.36.45-.7.91-1,1.37l-.05.07-52.84,69.94-33.67,44.58a32,32,0,0,1-51.3,0l-33.46-44.3-50.91-67.39a54.26,54.26,0,0,0-5.3-7A51.17,51.17,0,0,0,347.33,247c-28.59,0-51.85,23.85-51.85,53.15V437.28a238.68,238.68,0,0,0-42.57,13.77V300.11c0-50.84,38.25-92.54,86.86-96.49,2.5-.2,5-.3,7.56-.3a93.2,93.2,0,0,1,69.77,31.56l9.33,12.37,67.73,89.66a8.34,8.34,0,0,0,13.39,0l69.38-91.85,0,0,6.14-8.12a93.25,93.25,0,0,1,71.51-33.59c2.48,0,4.93.1,7.36.28C710.67,207.46,749,249.19,749,300.11Z"/><path class="cls-2" d="M295.94,437.17a219.75,219.75,0,0,1,35.61-4.93q37.17-2,69.22,9.6a164,164,0,0,1,43,23.45,186.57,186.57,0,0,1,18.79,16.25c2.09-2.53,4.14-5.12,6.11-7.75a291,291,0,0,1,20.79-24.85l.22-.24h0l.21-.21a218.35,218.35,0,0,0-46.13-33.82,204.32,204.32,0,0,0-43-17.43,223.63,223.63,0,0,0-73.34-7.4,261,261,0,0,0-31.49,3.89l-.46.08a284.19,284.19,0,0,0-42.57,11.45v45.8a238.68,238.68,0,0,1,42.57-13.77Z"/><path class="cls-2" d="M706.45,552.36a233.85,233.85,0,0,1-35,4.2q-34.94,1.46-64.89-8.37a159.29,159.29,0,0,1-43-21.74,176.44,176.44,0,0,1-23.42-20c-3.34,3.87-6.6,7.91-9.71,12.06-5.32,7.11-11,14-16.78,20.35l-.3.33,0,0-.44.47a210.29,210.29,0,0,0,50.68,36.55,205.82,205.82,0,0,0,43,16.21,228.79,228.79,0,0,0,56.33,6.86q6.2,0,12.05-.28a273.16,273.16,0,0,0,31.5-3.38c1.68-.28,3.32-.56,4.95-.86A299.88,299.88,0,0,0,749,585.34v-45.2a254.75,254.75,0,0,1-37.62,11.2C709.79,551.69,708.13,552,706.45,552.36Z"/><path d="M175.41,1167.71v160.43a7.25,7.25,0,0,1-7,7h-14.1a7.25,7.25,0,0,1-7-7V1167.71a22.7,22.7,0,0,0-45.4,0v160.43a7.25,7.25,0,0,1-7,7H80.66a7.26,7.26,0,0,1-7.06-7V1167.71a22.7,22.7,0,0,0-45.39,0v160.43a7.26,7.26,0,0,1-7.06,7H7.05a7.59,7.59,0,0,1-7-7V1167.71C0,1139.94,22.92,1117,51.13,1117a51,51,0,0,1,36.58,15.87A51,51,0,0,1,124.29,1117C152.5,1117,175.41,1139.94,175.41,1167.71Z"/><path d="M240.2,1328.14a7,7,0,0,1-7.06,7H219a7,7,0,0,1-7-7V1124.08a7,7,0,0,1,7-7.06h14.1a7.26,7.26,0,0,1,7.06,7.06Z"/><path d="M349.93,1182.69v-15a22.48,22.48,0,1,0-44.95,0V1284.5a22.48,22.48,0,1,0,44.95,0v-16.3a7,7,0,0,1,7.06-7h14.1a7,7,0,0,1,7.05,7v16.3a50.69,50.69,0,1,1-101.37,0V1167.71a50.69,50.69,0,1,1,101.37,0v15a7,7,0,0,1-7.05,7.06H357A7,7,0,0,1,349.93,1182.69Z"/><path d="M502.87,1188.86a50.86,50.86,0,0,1-15.43,37,49.82,49.82,0,0,1,15.43,36.58v65.67a7.25,7.25,0,0,1-7.05,7H481.71a7.25,7.25,0,0,1-7-7v-65.67A22.58,22.58,0,0,0,452.18,1240H429.71v88.15a7.59,7.59,0,0,1-7.06,7h-14.1a7.25,7.25,0,0,1-7.05-7v-197A13.92,13.92,0,0,1,415.6,1117h36.58a50.7,50.7,0,0,1,50.69,50.69Zm-28.21-21.15a22.58,22.58,0,0,0-22.48-22.48H429.71v66.55h22.47a22.67,22.67,0,0,0,22.48-22.92Z"/><path d="M641.26,1167.71v116.35c0,28.21-22.92,51.13-50.69,51.13a51.16,51.16,0,0,1-51.12-51.13V1167.71c0-27.77,22.92-50.69,51.12-50.69A51,51,0,0,1,641.26,1167.71Zm-28.21,0a22.7,22.7,0,0,0-45.39,0v116.35a22.7,22.7,0,1,0,45.39,0Z"/><path class="cls-1" d="M779.65,1189.31a48.6,48.6,0,0,1-15.87,36.58c10.14,9.25,15.87,22.47,15.87,37v21.15c0,28.21-22.92,51.13-50.69,51.13h-37a14.2,14.2,0,0,1-14.1-14.1v-190a13.92,13.92,0,0,1,14.1-14.11h37c27.77,0,50.69,22.92,50.69,51.13Zm-28.21-21.16A22.67,22.67,0,0,0,729,1145.23H706v66.55H729a22.57,22.57,0,0,0,22.48-22.47ZM729,1240H706v66.55H729a22.58,22.58,0,0,0,22.48-22.48v-21.15A22.67,22.67,0,0,0,729,1240Z"/><path class="cls-1" d="M844.43,1328.14a7,7,0,0,1-7,7h-14.1a7,7,0,0,1-7-7V1124.08a7,7,0,0,1,7-7.06h14.1a7.25,7.25,0,0,1,7,7.06Z"/><path class="cls-1" d="M949.76,1182.69v-15a22.48,22.48,0,1,0-45,0c0,5.73,0,5.73,1.32,7.49l61.26,81.1C978,1270.4,978,1270.4,978,1284.5a50.69,50.69,0,1,1-101.37,0v-15a7,7,0,0,1,7-7h14.11a7,7,0,0,1,7,7v15a22.48,22.48,0,1,0,45,0c0-5.73,0-5.73-1.32-7.49l-61.26-81.09c-10.58-14.11-10.58-14.11-10.58-28.21a50.69,50.69,0,1,1,101.37,0v15a7,7,0,0,1-7.05,7.06h-14.1A7,7,0,0,1,949.76,1182.69Z"/></g></g></svg>