<svg xmlns="http://www.w3.org/2000/svg" width="349.583" height="187.323" viewBox="0 0 349.583 187.323">
  <g id="Group_241" data-name="Group 241" transform="translate(-1611.936 2814.892)">
    <g id="Group_162" data-name="Group 162" transform="matrix(0.927, 0.375, -0.375, 0.927, 1655.223, -2814.892)">
      <path id="Path_86" data-name="Path 86" d="M886.525,445.261H849.843a128.3,128.3,0,0,1,0-43.736h36.682a78.7,78.7,0,0,0,0,43.736Z" transform="translate(-847.966 -401.524)" fill="#ff6584"/>
      <path id="Path_93" data-name="Path 93" d="M880.619,416.268H858.3c-.385,0-.7-.5-.7-1.122s.312-1.122.7-1.122h22.322c.385,0,.7.5.7,1.122S881,416.268,880.619,416.268Z" transform="translate(-850.199 -404.422)" fill="#fff"/>
      <path id="Path_94" data-name="Path 94" d="M880.619,429.817H858.3c-.385,0-.7-.5-.7-1.122s.312-1.122.7-1.122h22.322c.385,0,.7.5.7,1.122S881,429.817,880.619,429.817Z" transform="translate(-850.199 -407.563)" fill="#fff"/>
    </g>
    <g id="Group_163" data-name="Group 163" transform="matrix(0.788, -0.616, 0.616, 0.788, 1611.936, -2660.097)">
      <path id="Path_96" data-name="Path 96" d="M392.858,434.246h34.621a121.086,121.086,0,0,0,0-41.279H392.858A74.274,74.274,0,0,1,392.858,434.246Z" transform="translate(-392.858 -392.967)" fill="#6c63ff"/>
      <path id="Path_97" data-name="Path 97" d="M424.835,408.752H403.767c-.364,0-.658-.474-.658-1.059s.295-1.059.658-1.059h21.067c.364,0,.658.474.658,1.059S425.2,408.752,424.835,408.752Z" transform="translate(-395.677 -396.725)" fill="#fff"/>
      <path id="Path_98" data-name="Path 98" d="M424.835,422.3H403.767c-.364,0-.658-.474-.658-1.059s.295-1.059.658-1.059h21.067c.364,0,.658.474.658,1.059S425.2,422.3,424.835,422.3Z" transform="translate(-395.677 -400.451)" fill="#fff"/>
      <path id="Path_99" data-name="Path 99" d="M424.835,435.849H403.767c-.364,0-.658-.474-.658-1.059s.295-1.059.658-1.059h21.067c.364,0,.658.474.658,1.059S425.2,435.849,424.835,435.849Z" transform="translate(-395.677 -404.176)" fill="#fff"/>
    </g>
    <g id="lab-microscope-cell-covid19-coronavirus" transform="matrix(0.799, 0.602, -0.602, 0.799, 1935.271, -2737.594)">
      <path id="Path_113" data-name="Path 113" d="M38,46H48.2v1.458H38Z" transform="translate(-9.491 -11.794)" fill="#006df0"/>
      <path id="Path_114" data-name="Path 114" d="M21.017,35.661H15.186a.729.729,0,0,1-.729-.729V24H13V34.932a2.186,2.186,0,0,0,2.186,2.186h5.831a.729.729,0,1,0,0-1.458Z" transform="translate(-2.712 -5.828)" fill="#2488ff"/>
      <path id="Path_115" data-name="Path 115" d="M49.373,44.509V27.746a2.915,2.915,0,0,0-2.915-2.915H45V19h1.458A8.746,8.746,0,0,1,55.2,27.746V44.509Z" transform="translate(-11.39 -4.472)" fill="#9bc9ff"/>
      <path id="Path_116" data-name="Path 116" d="M46.458,19H45a8.746,8.746,0,0,1,8.746,8.746V44.509H55.2V27.746A8.746,8.746,0,0,0,46.458,19Z" transform="translate(-11.39 -4.472)" fill="#57a4ff"/>
      <path id="Path_117" data-name="Path 117" d="M0,0H3.309V4.373H0Z" transform="translate(25.546 8.516) rotate(-74.991)" fill="#004fac"/>
      <path id="Path_118" data-name="Path 118" d="M38.519,12.358,34.744,26.439l-.7-.189-1.414-.379-2.813-.751L25.59,23.983l-.7-.182L28.665,9.72l2.813.751,2.114.568Z" transform="translate(-5.936 -1.956)" fill="#2488ff"/>
      <path id="Path_119" data-name="Path 119" d="M36.041,11.319l-2.112-.566Z" transform="translate(-8.387 -2.236)" fill="#9bc9ff"/>
      <path id="Path_120" data-name="Path 120" d="M45.441,53.59A4.351,4.351,0,0,0,43.254,53H13.373A4.373,4.373,0,0,0,9,57.373v1.458H47.627V57.373a4.367,4.367,0,0,0-2.186-3.783Z" transform="translate(-1.627 -13.693)" fill="#004fac"/>
      <path id="Path_121" data-name="Path 121" d="M57.644,53.59A4.351,4.351,0,0,0,55.458,53H54a4.382,4.382,0,0,1,4.373,4.373v1.458h1.458V57.373a4.367,4.367,0,0,0-2.186-3.783Z" transform="translate(-13.83 -13.693)" fill="#00479b"/>
      <path id="Path_122" data-name="Path 122" d="M43.6,22.5a4.373,4.373,0,1,1-3.1-5.357A4.373,4.373,0,0,1,43.6,22.5Z" transform="translate(-8.679 -3.929)" fill="#ff6243"/>
      <path id="Path_123" data-name="Path 123" d="M36.095,6.078l1.408.378a2.915,2.915,0,0,0,3.571-2.061L34.031,2.508A2.915,2.915,0,0,0,36.095,6.078Z" transform="translate(-8.388)" fill="#808285"/>
      <path id="Path_124" data-name="Path 124" d="M31.65,30.848l2.816.754Z" transform="translate(-7.769 -7.685)" fill="#9bc9ff"/>
      <path id="Path_125" data-name="Path 125" d="M27.506,29.812l-.755,2.816,2.816.754,1.408.378,1.408.377.754-2.815-2.816-.754Z" transform="translate(-6.441 -7.404)" fill="#004fac"/>
      <path id="Path_126" data-name="Path 126" d="M28.4,34.194l-.754,2.815,2.816.755.754-2.816-1.408-.378Z" transform="translate(-6.684 -8.593)" fill="#a7a9ac"/>
      <path id="Path_127" data-name="Path 127" d="M30.615,34.711l1.408.378Z" transform="translate(-7.489 -8.733)" fill="#9bc9ff"/>
      <path id="Path_128" data-name="Path 128" d="M39.049,22.08a1.458,1.458,0,1,0,1.786-1.031A1.458,1.458,0,0,0,39.049,22.08Z" transform="translate(-9.762 -5.015)" fill="#e6e7e8"/>
      <path id="Path_129" data-name="Path 129" d="M21,45v2.915H34.119V45Z" transform="translate(-4.881 -11.523)" fill="#ff6243"/>
      <circle id="Ellipse_5" data-name="Ellipse 5" cx="8.017" cy="8.017" r="8.017" transform="translate(3 2.867)" fill="#ffcd00"/>
      <path id="Path_130" data-name="Path 130" d="M13.593,3a8.074,8.074,0,0,0-1.093.083,8.007,8.007,0,0,1,0,15.868A8.013,8.013,0,1,0,13.593,3Z" transform="translate(-2.576 -0.133)" fill="#ebbf00"/>
      <circle id="Ellipse_6" data-name="Ellipse 6" cx="2.186" cy="2.186" r="2.186" transform="translate(8.831 8.697)" fill="#ab2300"/>
      <path id="Path_131" data-name="Path 131" d="M13.559,16.475a.729.729,0,0,0-.729-.729v-.832a2.853,2.853,0,0,0,.743-.31l.59.59a.729.729,0,0,0,1.031,1.031l1.031-1.031a.729.729,0,1,0-1.031-1.031l-.59-.59a2.853,2.853,0,0,0,.309-.742h.832a.729.729,0,1,0,1.458,0V11.373a.729.729,0,1,0-1.458,0h-.832a2.853,2.853,0,0,0-.31-.743l.59-.59a.729.729,0,0,0,1.031-1.031l-1.031-1.03A.729.729,0,0,0,14.163,9.01l-.59.59a2.853,2.853,0,0,0-.743-.31V8.458a.729.729,0,1,0,0-1.458H11.373a.729.729,0,0,0,0,1.458V9.29a2.853,2.853,0,0,0-.743.31l-.59-.59A.729.729,0,1,0,9.01,7.979L7.979,9.009a.729.729,0,0,0,1.031,1.031l.59.59a2.853,2.853,0,0,0-.309.742H8.458a.729.729,0,0,0-1.458,0v1.458a.729.729,0,0,0,1.458,0H9.29a2.853,2.853,0,0,0,.31.743l-.59.59A.729.729,0,0,0,7.98,15.195l1.031,1.031a.729.729,0,1,0,1.031-1.031l.59-.59a2.853,2.853,0,0,0,.742.309v.832a.729.729,0,0,0,0,1.458h1.458a.729.729,0,0,0,.729-.729ZM10.644,12.1A1.458,1.458,0,1,1,12.1,13.559,1.458,1.458,0,0,1,10.644,12.1Z" transform="translate(-1.085 -1.218)" fill="#d80027"/>
    </g>
    <g id="surface1" transform="matrix(0.883, -0.469, 0.469, 0.883, 1774.895, -2721.118)">
      <path id="Path_156" data-name="Path 156" d="M217.794,37.994a10.481,10.481,0,0,1-1.84,6.1,5.783,5.783,0,0,1-9.863,0,11.023,11.023,0,0,1,0-12.2,7.854,7.854,0,0,1,.814-.96V0h8.236V30.936a7.951,7.951,0,0,1,.814.96A10.48,10.48,0,0,1,217.794,37.994Zm0,0" transform="translate(-185.558)" fill="#c3c7f5"/>
      <path id="Path_157" data-name="Path 157" d="M17.113,0V9.06H15.758V39.654a7.2,7.2,0,1,1-14.4,0V9.06H0V0Zm0,0" fill="#c3c7f5"/>
      <path id="Path_158" data-name="Path 158" d="M29.211,153.784v24.49a7.2,7.2,0,0,1-14.4,0V153.127a7.888,7.888,0,0,1,2.591-.534,8.349,8.349,0,0,1,3.818.747,6.876,6.876,0,0,1,.793.425c.345.212.66.438.952.649a9.281,9.281,0,0,0,1.109.722,4.186,4.186,0,0,0,3.063.193A4.886,4.886,0,0,0,29.211,153.784Zm0,0" transform="translate(-13.453 -138.62)" fill="#ffa720"/>
      <path id="Path_159" data-name="Path 159" d="M102.057,0V9.06H100.7V39.654a7.211,7.211,0,0,1-6.2,7.132h-1V0Zm0,0" transform="translate(-84.943)" fill="#a6aef1"/>
      <path id="Path_160" data-name="Path 160" d="M100.7,165.5v24.49a7.211,7.211,0,0,1-6.2,7.132h-1V165.48c.345.212.66.438.952.649a9.28,9.28,0,0,0,1.109.722,4.186,4.186,0,0,0,3.063.193A4.886,4.886,0,0,0,100.7,165.5Zm0,0" transform="translate(-84.943 -150.337)" fill="#ff8700"/>
      <path id="Path_161" data-name="Path 161" d="M285.022,37.994a10.482,10.482,0,0,1-1.84,6.1,6.085,6.085,0,0,1-4.932,2.763V0h4.118V30.936a7.95,7.95,0,0,1,.814.96A10.48,10.48,0,0,1,285.022,37.994Zm0,0" transform="translate(-252.786)" fill="#a6aef1"/>
    </g>
  </g>
</svg>
