<svg xmlns="http://www.w3.org/2000/svg" width="211" height="99.624" viewBox="0 0 211 99.624">
  <g id="Group_171" data-name="Group 171" transform="translate(-817 -255.698)">
    <text id="Admin" transform="translate(976 312)" fill="#fff" font-size="19" font-family="SFProDisplay-Regular, SF Pro Display"><tspan x="0" y="0">Admin</tspan></text>
    <g id="Group_152" data-name="Group 152" transform="translate(-568.835 -179.44)">
      <g id="Group_151" data-name="Group 151" transform="translate(1410.122 435.138)">
        <g id="Group_148" data-name="Group 148" transform="translate(0 17.009)">
          <path id="Path_20" data-name="Path 20" d="M1591.911,548.982v4.15a22.7,22.7,0,0,0-3.509-1.065c-.126-.027-.253-.054-.382-.079a20.532,20.532,0,0,0-2.93-.372,16.485,16.485,0,0,0-6.44.878,15.33,15.33,0,0,0-4,2.143,18.16,18.16,0,0,0-2.823,2.613l-.024.028q-.552.628-1.074,1.325-.7.94-1.442,1.748l0,0a19.871,19.871,0,0,1-5.774,4.425,19.337,19.337,0,0,1-4,1.482,21.638,21.638,0,0,1-5.24.628q-.577,0-1.121-.026a25.761,25.761,0,0,1-2.691-.271q-.357-.054-.7-.116a28.444,28.444,0,0,1-3.191-.767v-4.113a24.2,24.2,0,0,0,3.191.91c.227.048.461.094.7.138a21.96,21.96,0,0,0,3.015.339,17.274,17.274,0,0,0,6.038-.765,14.953,14.953,0,0,0,4-1.988,16.97,16.97,0,0,0,3.235-2.977l.021-.024q.37-.439.724-.912a25.2,25.2,0,0,1,1.794-2.143h0a20.738,20.738,0,0,1,5.363-4.16,19.206,19.206,0,0,1,4-1.593,21.134,21.134,0,0,1,6.823-.677,24.41,24.41,0,0,1,2.547.289c.129.021.256.043.382.066A26.823,26.823,0,0,1,1591.911,548.982Z" transform="translate(-1546.561 -547.699)" fill="#fff"/>
        </g>
        <g id="Group_149" data-name="Group 149" transform="translate(12.124 5.43)">
          <path id="Path_21" data-name="Path 21" d="M1626.793,471.072a4.8,4.8,0,0,1,.484.625Z" transform="translate(-1626.793 -471.072)" fill="#fff"/>
        </g>
        <path id="Path_22" data-name="Path 22" d="M1559.932,645.6v8.148a4.74,4.74,0,1,1-9.479,0V640.7c-.24-.043-.474-.089-.7-.138a24.2,24.2,0,0,1-3.191-.91v14.092a8.631,8.631,0,1,0,17.262,0v-9.63A18.46,18.46,0,0,1,1559.932,645.6Z" transform="translate(-1546.561 -608.747)" fill="#fff"/>
        <path id="Path_23" data-name="Path 23" d="M1745.812,639.8v13.1a4.74,4.74,0,1,1-9.48,0v-8.148a18.455,18.455,0,0,1-3.891-1.482v9.63a8.631,8.631,0,1,0,17.262,0V638.658A22.786,22.786,0,0,1,1745.812,639.8Z" transform="translate(-1704.353 -607.904)" fill="#fff"/>
        <rect id="Rectangle_75" data-name="Rectangle 75" width="1.3" height="15.003" rx="0.65" transform="translate(36.263 18.56)" fill="#fff"/>
        <rect id="Rectangle_76" data-name="Rectangle 76" width="1.3" height="13.117" rx="0.65" transform="translate(40.386 20.447)" fill="#fff"/>
        <rect id="Rectangle_77" data-name="Rectangle 77" width="1.3" height="13.53" rx="0.65" transform="translate(32.352 20.447)" fill="#fff"/>
        <rect id="Rectangle_78" data-name="Rectangle 78" width="1.3" height="15.535" rx="0.65" transform="translate(9.172 18.014)" fill="#fff"/>
        <rect id="Rectangle_79" data-name="Rectangle 79" width="1.3" height="13.582" rx="0.65" transform="translate(13.295 19.967)" fill="#fff"/>
        <rect id="Rectangle_80" data-name="Rectangle 80" width="1.3" height="14.01" rx="0.65" transform="translate(5.261 19.967)" fill="#fff"/>
        <path id="Path_24" data-name="Path 24" d="M1591.911,443.986V457.58a22.689,22.689,0,0,0-3.509-1.065q-.188-.041-.382-.079v-12.45a4.806,4.806,0,0,0-4.74-4.858,4.691,4.691,0,0,0-3.7,1.828c-.033.041-.064.083-.095.126l0,.006-4.83,6.394-3.078,4.075a2.92,2.92,0,0,1-4.689,0l-3.059-4.05-4.654-6.16a4.923,4.923,0,0,0-.484-.641,4.677,4.677,0,0,0-3.493-1.577,4.806,4.806,0,0,0-4.74,4.858v12.539a21.791,21.791,0,0,0-3.891,1.258v-13.8a8.764,8.764,0,0,1,7.94-8.82q.343-.027.692-.028a8.515,8.515,0,0,1,6.377,2.886l.853,1.13,6.191,8.2a.762.762,0,0,0,1.224,0l6.342-8.4,0,0,.561-.743a8.526,8.526,0,0,1,6.537-3.071c.226,0,.451.009.672.026A8.764,8.764,0,0,1,1591.911,443.986Z" transform="translate(-1546.561 -435.138)" fill="#fff"/>
        <g id="Group_150" data-name="Group 150" transform="translate(0 17.009)">
          <path id="Path_25" data-name="Path 25" d="M1550.494,552.067a20.046,20.046,0,0,1,3.255-.451,15.935,15.935,0,0,1,6.328.878,14.985,14.985,0,0,1,3.934,2.143,17.172,17.172,0,0,1,1.718,1.486c.191-.231.378-.469.558-.709a26.873,26.873,0,0,1,1.9-2.271l.021-.022h0l.019-.02a19.956,19.956,0,0,0-4.217-3.091,18.693,18.693,0,0,0-3.934-1.593,20.419,20.419,0,0,0-6.7-.677,23.805,23.805,0,0,0-2.879.355l-.042.008a25.959,25.959,0,0,0-3.891,1.046v4.186a21.8,21.8,0,0,1,3.891-1.258Z" transform="translate(-1546.561 -547.699)" fill="#fff"/>
          <path id="Path_26" data-name="Path 26" d="M1721.511,622.7a21.351,21.351,0,0,1-3.2.384,16.693,16.693,0,0,1-5.932-.765,14.583,14.583,0,0,1-3.934-1.988,16.076,16.076,0,0,1-2.14-1.829c-.306.354-.6.724-.888,1.1-.486.65-1,1.276-1.534,1.86l-.028.031,0,0-.04.043a19.182,19.182,0,0,0,4.632,3.341,18.785,18.785,0,0,0,3.934,1.482,20.912,20.912,0,0,0,5.149.628c.377,0,.744-.009,1.1-.026a25.1,25.1,0,0,0,2.88-.309q.229-.038.452-.079a27.5,27.5,0,0,0,3.439-.863v-4.132a23.34,23.34,0,0,1-3.439,1.024C1721.816,622.641,1721.665,622.672,1721.511,622.7Z" transform="translate(-1680.052 -607.805)" fill="#fff"/>
        </g>
      </g>
      <text id="MicroBIS" transform="translate(1385.835 525.762)" fill="#fff" font-size="39" font-family="Blanch-Caps, Blanch"><tspan x="0" y="0">MicroBIS</tspan></text>
    </g>
    <rect id="Rectangle_92" data-name="Rectangle 92" width="1" height="81" rx="0.5" transform="translate(941 260)" fill="#d0d0d0"/>
  </g>
</svg>
