<svg xmlns="http://www.w3.org/2000/svg" viewBox="0 0 1622.07 586.66"><defs><style>.cls-1{fill:#0d598b;}</style></defs><title>Logo 02</title><g id="Layer_2" data-name="Layer 2"><g id="Layer_1-2" data-name="Layer 1"><path class="cls-1" d="M496.11,200.11V245.5a248,248,0,0,0-38.38-11.64c-1.38-.3-2.77-.59-4.19-.87a222.71,222.71,0,0,0-32-4.07q-37.85-2-70.46,9.61A167.5,167.5,0,0,0,307.24,262a198.73,198.73,0,0,0-30.88,28.59l-.26.3q-6,6.87-11.75,14.49c-5.12,6.86-10.4,13.22-15.77,19.13l0,0a217.47,217.47,0,0,1-63.16,48.41,212,212,0,0,1-43.8,16.21A236.79,236.79,0,0,1,84.27,396Q78,396,72,395.7a280.75,280.75,0,0,1-29.44-3c-2.6-.39-5.16-.82-7.66-1.27A310.65,310.65,0,0,1,0,383.07v-45A263.9,263.9,0,0,0,34.91,348c2.48.53,5,1,7.66,1.51a240.48,240.48,0,0,0,33,3.71q35.57,1.45,66.05-8.37a163.52,163.52,0,0,0,43.8-21.74,186,186,0,0,0,35.39-32.57l.22-.27q4.05-4.82,7.93-10a274.66,274.66,0,0,1,19.62-23.45h0a226.93,226.93,0,0,1,58.67-45.51A210.1,210.1,0,0,1,351,193.92a231.24,231.24,0,0,1,74.64-7.41,267,267,0,0,1,27.86,3.17c1.41.23,2.81.47,4.19.72A292.6,292.6,0,0,1,496.11,200.11Z"/><path class="cls-1" d="M132.63,59.4a53.18,53.18,0,0,1,5.3,6.84Z"/><path class="cls-1" d="M146.27,403.11v89.13a51.85,51.85,0,0,1-103.7,0V349.53c-2.62-.47-5.18-1-7.66-1.51A263.9,263.9,0,0,1,0,338.08V492.24a94.42,94.42,0,0,0,188.84,0V386.89A201.83,201.83,0,0,1,146.27,403.11Z"/><path class="cls-1" d="M453.54,348.94v143.3a51.85,51.85,0,0,1-103.7,0V403.11a202,202,0,0,1-42.57-16.22V492.24a94.42,94.42,0,0,0,188.84,0V336.43A248.53,248.53,0,0,1,453.54,348.94Z"/><rect class="cls-1" x="396.7" y="203.04" width="14.22" height="164.13" rx="4.3"/><rect class="cls-1" x="441.81" y="223.68" width="14.22" height="143.49" rx="4.3"/><rect class="cls-1" x="353.92" y="223.68" width="14.22" height="148.01" rx="4.3"/><rect class="cls-1" x="100.34" y="197.06" width="14.22" height="169.95" rx="4.3"/><rect class="cls-1" x="145.44" y="218.43" width="14.22" height="148.58" rx="4.3"/><rect class="cls-1" x="57.55" y="218.43" width="14.22" height="153.26" rx="4.3"/><path class="cls-1" d="M496.11,96.79V245.5a248,248,0,0,0-38.38-11.64c-1.38-.3-2.77-.59-4.19-.87V96.79c0-29.3-23.26-53.15-51.85-53.15a51.31,51.31,0,0,0-40.49,20c-.36.45-.7.91-1,1.37l-.05.07-52.84,70L273.6,179.61a32,32,0,0,1-51.3,0l-33.46-44.3-50.91-67.4a54.16,54.16,0,0,0-5.3-7A51.17,51.17,0,0,0,94.42,43.64c-28.59,0-51.85,23.85-51.85,53.15V234A238.68,238.68,0,0,0,0,247.73V96.79C0,46,38.25,4.26,86.86.3c2.5-.2,5-.3,7.56-.3a93.15,93.15,0,0,1,69.76,31.57l9.34,12.36,67.73,89.66a8.34,8.34,0,0,0,13.39,0L324,41.74l0,0,6.14-8.13A93.25,93.25,0,0,1,401.69,0c2.47,0,4.93.1,7.36.29C457.76,4.14,496.11,45.88,496.11,96.79Z"/><path class="cls-1" d="M43,233.86a218.46,218.46,0,0,1,35.61-4.94q37.17-2,69.22,9.61a163.65,163.65,0,0,1,43,23.44,186.69,186.69,0,0,1,18.79,16.26c2.09-2.53,4.14-5.13,6.1-7.76a291.21,291.21,0,0,1,20.8-24.84l.22-.25h0l.21-.22a218.7,218.7,0,0,0-46.13-33.82,204.27,204.27,0,0,0-43-17.42,223.39,223.39,0,0,0-73.34-7.41A261,261,0,0,0,43,190.4l-.46.09A282.76,282.76,0,0,0,0,201.93v45.8A238.68,238.68,0,0,1,42.57,234Z"/><path class="cls-1" d="M453.54,349a232.55,232.55,0,0,1-35,4.2q-34.93,1.45-64.89-8.37a159.49,159.49,0,0,1-43-21.74,177,177,0,0,1-23.41-20c-3.34,3.87-6.6,7.91-9.71,12.07-5.32,7.11-11,13.95-16.78,20.34l-.31.34,0,0-.44.47a209.9,209.9,0,0,0,50.67,36.55,206.1,206.1,0,0,0,43,16.21A228.82,228.82,0,0,0,410,396q6.19,0,12.05-.29a273.16,273.16,0,0,0,31.5-3.38c1.68-.27,3.32-.56,4.95-.86A299.88,299.88,0,0,0,496.11,382v-45.2A253.52,253.52,0,0,1,458.49,348C456.88,348.37,455.22,348.71,453.54,349Z"/><path d="M819.51,219.83V380.26a7.25,7.25,0,0,1-7,7.05H798.35a7.25,7.25,0,0,1-7.05-7.05V219.83a22.7,22.7,0,0,0-45.39,0V380.26a7.25,7.25,0,0,1-7,7.05H724.75a7.25,7.25,0,0,1-7-7.05V219.83a22.7,22.7,0,0,0-45.4,0V380.26a7.25,7.25,0,0,1-7,7.05h-14.1a7.58,7.58,0,0,1-7-7.05V219.83c0-27.77,22.92-50.69,51.12-50.69A51,51,0,0,1,731.8,185a51,51,0,0,1,36.58-15.87C796.59,169.14,819.51,192.06,819.51,219.83Z"/><path d="M884.29,380.26a7,7,0,0,1-7,7.05h-14.1a7,7,0,0,1-7-7.05V176.19a7,7,0,0,1,7-7.05h14.1a7.25,7.25,0,0,1,7,7.05Z"/><path d="M994,234.81v-15a22.48,22.48,0,1,0-44.95,0V336.62a22.48,22.48,0,1,0,44.95,0v-16.3a7,7,0,0,1,7.05-7.06h14.11a7,7,0,0,1,7,7.06v16.3a50.69,50.69,0,1,1-101.37,0V219.83a50.69,50.69,0,1,1,101.37,0v15a7,7,0,0,1-7,7.05h-14.11A7,7,0,0,1,994,234.81Z"/><path d="M1147,241a50.85,50.85,0,0,1-15.42,37A49.89,49.89,0,0,1,1147,314.59v65.67a7.25,7.25,0,0,1-7,7.05h-14.1a7.25,7.25,0,0,1-7-7.05V314.59a22.58,22.58,0,0,0-22.48-22.48H1073.8v88.15a7.58,7.58,0,0,1-7,7.05h-14.1a7.26,7.26,0,0,1-7.06-7.05v-197a13.93,13.93,0,0,1,14.11-14.11h36.58A50.69,50.69,0,0,1,1147,219.83Zm-28.2-21.15a22.58,22.58,0,0,0-22.48-22.48H1073.8V263.9h22.48A22.67,22.67,0,0,0,1118.76,241Z"/><path d="M1285.35,219.83V336.18c0,28.21-22.91,51.13-50.68,51.13a51.17,51.17,0,0,1-51.13-51.13V219.83c0-27.77,22.92-50.69,51.13-50.69A51,51,0,0,1,1285.35,219.83Zm-28.2,0a22.7,22.7,0,0,0-45.4,0V336.18a22.7,22.7,0,1,0,45.4,0Z"/><path class="cls-1" d="M1423.74,241.42A48.6,48.6,0,0,1,1407.88,278c10.13,9.26,15.86,22.48,15.86,37v21.15c0,28.21-22.91,51.13-50.68,51.13h-37a14.2,14.2,0,0,1-14.11-14.11V183.25A13.93,13.93,0,0,1,1336,169.14h37c27.77,0,50.68,22.92,50.68,51.13Zm-28.2-21.15a22.67,22.67,0,0,0-22.48-22.92h-22.92V263.9h22.92a22.58,22.58,0,0,0,22.48-22.48Zm-22.48,71.84h-22.92v66.55h22.92a22.58,22.58,0,0,0,22.48-22.48V315A22.67,22.67,0,0,0,1373.06,292.11Z"/><path class="cls-1" d="M1488.53,380.26a7,7,0,0,1-7,7.05h-14.11a7,7,0,0,1-7-7.05V176.19a7,7,0,0,1,7-7.05h14.11a7.25,7.25,0,0,1,7,7.05Z"/><path class="cls-1" d="M1593.86,234.81v-15a22.48,22.48,0,1,0-44.95,0c0,5.73,0,5.73,1.32,7.49l61.26,81.1c10.58,14.1,10.58,14.1,10.58,28.2a50.69,50.69,0,1,1-101.37,0v-15a7,7,0,0,1,7-7.05h14.1a7,7,0,0,1,7.06,7.05v15a22.48,22.48,0,1,0,44.95,0c0-5.73,0-5.73-1.32-7.49L1531.28,248c-10.58-14.1-10.58-14.1-10.58-28.2a50.69,50.69,0,1,1,101.37,0v15a7,7,0,0,1-7,7.05h-14.11A7,7,0,0,1,1593.86,234.81Z"/></g></g></svg>